<svg xmlns="http://www.w3.org/2000/svg" viewBox="0 0 652.49 124.47"><defs><style>.cls-1{fill:#f70;}.cls-2{fill:#ffad00;}.cls-3{font-size:72px;fill:#fff;font-family:Montserrat-SemiBold, Montserrat;font-weight:600;}.cls-4{letter-spacing:-0.02em;}.cls-5{letter-spacing:-0.02em;}</style></defs><title>NS_logo_BGDark_Regular</title><g id="Layer_2" data-name="Layer 2"><g id="Layer_1-2" data-name="Layer 1"><polygon class="cls-1" points="90.68 31.12 121.8 0 59.57 0 28.45 31.12 59.57 62.24 90.68 31.12"/><path class="cls-2" d="M137.36,15.56,121.8,0,90.68,31.12l46.68,46.67h0A44,44,0,0,0,137.36,15.56Z"/><polygon class="cls-1" points="59.57 93.35 28.45 124.47 90.68 124.47 121.8 93.35 90.68 62.24 59.57 93.35"/><path class="cls-2" d="M59.57,93.35,12.89,46.68a44,44,0,0,0,0,62.23l15.56,15.56Z"/><text class="cls-3" transform="translate(183.92 95.23)">N<tspan class="cls-4" x="58.32" y="0">o</tspan><tspan class="cls-5" x="103.68" y="0">v</tspan><tspan x="144.07" y="0">a Semita</tspan></text></g></g></svg>