<svg xmlns="http://www.w3.org/2000/svg" viewBox="0 0 273.33 187.66"><defs><style>.cls-1{fill:#f70;}.cls-2{fill:#ffad00;}.cls-3{font-size:42px;fill:#fff;font-family:Montserrat-SemiBold, Montserrat;font-weight:600;}.cls-4{letter-spacing:-0.01em;}.cls-5{letter-spacing:-0.02em;}</style></defs><title>NS_logo_BGDark_Vertical</title><g id="Layer_2" data-name="Layer 2"><g id="Layer_1-2" data-name="Layer 1"><polygon class="cls-1" points="151.76 30.18 181.93 0 121.58 0 91.4 30.18 121.58 60.36 151.76 30.18"/><path class="cls-2" d="M197,15.09,181.93,0,151.76,30.18,197,75.45h0A42.68,42.68,0,0,0,197,15.09Z"/><polygon class="cls-1" points="121.58 90.53 91.4 120.71 151.76 120.71 181.93 90.53 151.76 60.36 121.58 90.53"/><path class="cls-2" d="M121.58,90.53,76.31,45.27a42.67,42.67,0,0,0,0,60.35L91.4,120.71Z"/><text class="cls-3" transform="translate(0 176.53)">N<tspan class="cls-4" x="34.02" y="0">o</tspan><tspan class="cls-5" x="60.48" y="0">v</tspan><tspan x="84.04" y="0">a Semita</tspan></text></g></g></svg>